<?xml version="1.0" standalone="no"?><!DOCTYPE svg PUBLIC "-//W3C//DTD SVG 1.1//EN" "http://www.w3.org/Graphics/SVG/1.1/DTD/svg11.dtd"><svg t="1525340452235" class="icon" style="" viewBox="0 0 1024 1024" version="1.1" xmlns="http://www.w3.org/2000/svg" p-id="23375" xmlns:xlink="http://www.w3.org/1999/xlink" width="22" height="22"><defs><style type="text/css"></style></defs><path d="M512.512 0C229.888 0 0.512 229.376 0.512 512s229.376 512 512 512 512-229.376 512-512S795.648 0 512.512 0z m0 972.8c-254.464 0-460.8-206.336-460.8-460.8s206.336-460.8 460.8-460.8 460.8 206.336 460.8 460.8-206.336 460.8-460.8 460.8z" fill="#00b5bc" p-id="23376"></path><path d="M337.408 437.248m-62.464 0a62.464 62.464 0 1 0 124.928 0 62.464 62.464 0 1 0-124.928 0Z" fill="#00b5bc" p-id="23377"></path><path d="M711.68 437.248m-62.464 0a62.464 62.464 0 1 0 124.928 0 62.464 62.464 0 1 0-124.928 0Z" fill="#00b5bc" p-id="23378"></path><path d="M352.768 769.024c43.52 34.816 100.352 55.296 171.52 55.296 71.168 0 128.512-20.48 171.52-55.296 26.624-20.992 42.496-43.008 50.688-58.368 6.144-12.288 1.024-27.136-11.264-33.28-12.288-6.144-27.136-1.024-33.28 11.264-1.024 2.048-3.584 6.144-7.68 11.776-7.68 10.24-17.408 20.48-29.184 29.696-34.816 27.648-80.896 44.544-140.288 44.544-59.904 0-105.984-16.896-140.288-44.544-11.776-9.728-21.504-19.968-29.184-29.696-4.096-5.632-6.656-9.728-7.68-11.776-6.144-12.288-20.992-17.408-33.28-11.264s-17.408 20.992-11.264 33.28c7.168 15.36 23.04 36.864 49.664 58.368z" fill="#00b5bc" p-id="23379"></path></svg>