<?xml version="1.0" standalone="no"?><!DOCTYPE svg PUBLIC "-//W3C//DTD SVG 1.1//EN" "http://www.w3.org/Graphics/SVG/1.1/DTD/svg11.dtd"><svg t="1525403249735" class="icon" style="" viewBox="0 0 1024 1024" version="1.1" xmlns="http://www.w3.org/2000/svg" p-id="3029" xmlns:xlink="http://www.w3.org/1999/xlink" width="22" height="22"><defs><style type="text/css"></style></defs><path d="M342.625428 784.803199c-36.403095 0-65.911152 29.484521-65.911152 65.886593 0 36.428677 29.508058 65.937758 65.911152 65.937758 36.428677 0 65.936735-29.508058 65.936735-65.937758C408.562163 814.287721 379.054105 784.803199 342.625428 784.803199z" p-id="3030" fill="#c7c7c7"></path><path d="M818.500673 784.803199c-36.428677 0-65.937758 29.484521-65.937758 65.886593 0 36.428677 29.508058 65.937758 65.937758 65.937758 36.402071 0 65.913199-29.508058 65.913199-65.937758C884.414895 814.287721 854.903767 784.803199 818.500673 784.803199z" p-id="3031" fill="#c7c7c7"></path><path d="M914.87565 156.7613l-654.511761 0.185218-6.135744-26.709315c-2.532683-10.889001-12.246929-23.181979-23.422456-23.181979L86.99433 107.055225c-13.266142 0-24.023136 14.363126-24.023136 27.629267 0 13.292748 10.756995 27.629267 24.023136 27.629267l124.694977 0 105.685018 459.702913-30.92022 61.568241c-3.864004 7.414877-3.550873 18.173918 0.783853 25.327852 4.387937 7.209192 12.170181 15.19712 20.526499 15.19712l548.055171 0c13.266142 0 24.026206-13.851473 24.026206-27.117614 0-13.292748-10.760065-27.117614-24.026206-27.117614L347.298867 669.874657l16.790408-34.161031c2.639107-5.064342 3.369747-12.56313 2.090615-18.127869l-0.550539-2.396583 554.135656-64.811098c26.586518-3.786233 38.59297-28.227901 38.59297-55.700603L958.357977 208.753441C958.359001 179.611727 943.496501 156.7613 914.87565 156.7613z" p-id="3032" fill="#c7c7c7"></path></svg>