<?xml version="1.0" standalone="no"?><!DOCTYPE svg PUBLIC "-//W3C//DTD SVG 1.1//EN" "http://www.w3.org/Graphics/SVG/1.1/DTD/svg11.dtd"><svg t="1525340234765" class="icon" style="" viewBox="0 0 1024 1024" version="1.1" xmlns="http://www.w3.org/2000/svg" p-id="20189" xmlns:xlink="http://www.w3.org/1999/xlink" width="22" height="22"><defs><style type="text/css"></style></defs><path d="M593.92 936.96v-250.88H435.2v250.88H194.56c-25.6 0-40.96-15.36-40.96-40.96v-312.32c0-5.12 5.12-10.24 10.24-15.36 66.56-61.44 138.24-117.76 204.8-179.2C409.6 348.16 455.68 307.2 501.76 266.24c5.12 0 5.12-5.12 10.24-5.12 25.6 25.6 56.32 46.08 81.92 71.68 87.04 76.8 179.2 153.6 266.24 230.4 10.24 10.24 15.36 15.36 15.36 30.72v296.96c0 15.36-5.12 35.84-20.48 40.96-5.12 5.12-10.24 5.12-20.48 5.12h-240.64z m117.76-701.44V117.76c0-25.6 5.12-30.72 30.72-30.72h107.52c20.48 0 25.6 5.12 25.6 25.6V358.4c0 15.36 5.12 20.48 10.24 30.72 40.96 35.84 76.8 66.56 117.76 102.4 20.48 15.36 20.48 25.6 5.12 46.08-10.24 10.24-20.48 25.6-30.72 35.84-10.24 15.36-20.48 15.36-35.84 5.12-138.24-122.88-276.48-245.76-414.72-363.52l-15.36-15.36c-30.72 30.72-61.44 56.32-92.16 81.92C307.2 378.88 194.56 481.28 87.04 578.56c-15.36 15.36-25.6 10.24-35.84-5.12-10.24-15.36-20.48-25.6-30.72-40.96-15.36-10.24-15.36-20.48 0-35.84C81.92 440.32 143.36 389.12 204.8 332.8 291.84 256 373.76 184.32 455.68 112.64c35.84-35.84 76.8-35.84 112.64 0 46.08 40.96 87.04 76.8 133.12 117.76 5.12 0 5.12 5.12 10.24 5.12z" p-id="20190" fill="#c7c7c7"></path></svg>