<?xml version="1.0" standalone="no"?><!DOCTYPE svg PUBLIC "-//W3C//DTD SVG 1.1//EN" "http://www.w3.org/Graphics/SVG/1.1/DTD/svg11.dtd"><svg t="1525340727325" class="icon" style="" viewBox="0 0 1024 1024" version="1.1" xmlns="http://www.w3.org/2000/svg" p-id="29428" xmlns:xlink="http://www.w3.org/1999/xlink" width="22" height="22"><defs><style type="text/css"></style></defs><path d="M937.764452 145.821133 298.4713 145.821133c-19.003819 0-34.347273-16.20917-34.347273-36.22197 0-19.973914 15.343453-36.133965 34.347273-36.133965l639.293151 0c18.959817 0 34.347273 16.160051 34.347273 36.133965C972.112748 129.611963 956.726316 145.821133 937.764452 145.821133L937.764452 145.821133z" p-id="29429" fill="#c7c7c7"></path><path d="M937.764452 531.4684 298.4713 531.4684c-19.003819 0-34.347273-16.20917-34.347273-36.182061 0-20.022009 15.343453-36.182061 34.347273-36.182061l639.293151 0c18.959817 0 34.347273 16.160051 34.347273 36.182061C972.112748 515.25923 956.726316 531.4684 937.764452 531.4684L937.764452 531.4684z" p-id="29430" fill="#c7c7c7"></path><path d="M937.764452 917.106458 298.4713 917.106458c-19.003819 0-34.347273-16.20917-34.347273-36.173874 0-20.074198 15.343453-36.18513 34.347273-36.18513l639.293151 0c18.959817 0 34.347273 16.110933 34.347273 36.18513C972.112748 900.897288 956.726316 917.106458 937.764452 917.106458L937.764452 917.106458z" p-id="29431" fill="#c7c7c7"></path><path d="M194.752054 880.932584c0 32.55444-25.090445 58.944484-55.963593 58.944484-30.870078 0-55.861262-26.390044-55.861262-58.944484 0-32.515554 24.991184-58.95574 55.861262-58.95574C169.662633 821.976844 194.752054 848.417029 194.752054 880.932584z" p-id="29432" fill="#c7c7c7"></path><path d="M194.752054 495.285317c0 32.515554-25.090445 58.904575-55.963593 58.904575-30.870078 0-55.861262-26.38902-55.861262-58.904575 0-32.615838 24.991184-58.953693 55.861262-58.953693C169.662633 436.331623 194.752054 462.669478 194.752054 495.285317z" p-id="29433" fill="#c7c7c7"></path><path d="M194.752054 109.599164c0 32.55444-25.090445 58.894342-55.963593 58.894342-30.870078 0-55.861262-26.338878-55.861262-58.894342 0-32.565696 24.991184-58.904575 55.861262-58.904575C169.662633 50.694589 194.752054 77.033467 194.752054 109.599164z" p-id="29434" fill="#c7c7c7"></path></svg>